HIERARCHY
ROOT Hips
{
  OFFSET -317.839 92.0481 602.649
  CHANNELS 6 Xposition Yposition Zposition Zrotation Xrotation Yrotation
  JOINT Spine
  {
    OFFSET 0 8 -1.23054e-05
    CHANNELS 6 Xposition Yposition Zposition Zrotation Xrotation Yrotation
    JOINT Spine1
    {
      OFFSET 0 8 1.03204e-05
      CHANNELS 6 Xposition Yposition Zposition Zrotation Xrotation Yrotation
      JOINT Spine2
      {
        OFFSET 0 8 0
        CHANNELS 6 Xposition Yposition Zposition Zrotation Xrotation Yrotation
        JOINT Spine3
        {
          OFFSET 0 8 0
          CHANNELS 6 Xposition Yposition Zposition Zrotation Xrotation Yrotation
          JOINT Neck
          {
            OFFSET 3.27843e-05 17 0
            CHANNELS 6 Xposition Yposition Zposition Zrotation Xrotation Yrotation
            JOINT Head
            {
              OFFSET 0 10.8 0
              CHANNELS 6 Xposition Yposition Zposition Zrotation Xrotation Yrotation
              End Site
              {
                OFFSET 0 20.25 0
              }
            }
          }
          JOINT LeftShoulder
          {
            OFFSET 5 17 0
            CHANNELS 6 Xposition Yposition Zposition Zrotation Xrotation Yrotation
            JOINT LeftShoulder2
            {
              OFFSET 6.45 0 0
              CHANNELS 6 Xposition Yposition Zposition Zrotation Xrotation Yrotation
              JOINT LeftArm
              {
                OFFSET 6.45001 0 0
                CHANNELS 6 Xposition Yposition Zposition Zrotation Xrotation Yrotation
                JOINT LeftForeArm
                {
                  OFFSET 1.33596e-05 -32.4 -2.00001
                  CHANNELS 6 Xposition Yposition Zposition Zrotation Xrotation Yrotation
                  JOINT LeftHand
                  {
                    OFFSET 1.66541e-05 -25.65 2.00002
                    CHANNELS 6 Xposition Yposition Zposition Zrotation Xrotation Yrotation
                    JOINT LeftHandThumb1
                    {
                      OFFSET -0.499999 -1.50001 2.64999
                      CHANNELS 6 Xposition Yposition Zposition Zrotation Xrotation Yrotation
                      JOINT LeftHandThumb2
                      {
                        OFFSET -2.43491e-05 -3.8 3.69999
                        CHANNELS 6 Xposition Yposition Zposition Zrotation Xrotation Yrotation
                        JOINT LeftHandThumb3
                        {
                          OFFSET 2.62274e-05 -2.99997 2.70001
                          CHANNELS 6 Xposition Yposition Zposition Zrotation Xrotation Yrotation
                          End Site
                          {
                            OFFSET -2.2158e-05 -2.30002 1.8
                          }
                        }
                      }
                    }
                    JOINT LeftHandIndex
                    {
                      OFFSET 0 -1.90002 1.59999
                      CHANNELS 6 Xposition Yposition Zposition Zrotation Xrotation Yrotation
                      JOINT LeftHandIndex1
                      {
                        OFFSET 0 -8.29998 1.9
                        CHANNELS 6 Xposition Yposition Zposition Zrotation Xrotation Yrotation
                        JOINT LeftHandIndex2
                        {
                          OFFSET 4.6648e-05 -4.49998 0
                          CHANNELS 6 Xposition Yposition Zposition Zrotation Xrotation Yrotation
                          JOINT LeftHandIndex3
                          {
                            OFFSET 0 -3.40002 0
                            CHANNELS 6 Xposition Yposition Zposition Zrotation Xrotation Yrotation
                            End Site
                            {
                              OFFSET 0 -2.59998 0
                            }
                          }
                        }
                      }
                    }
                    JOINT LeftHandMiddle
                    {
                      OFFSET -0.249979 -2.19998 0.400009
                      CHANNELS 6 Xposition Yposition Zposition Zrotation Xrotation Yrotation
                      JOINT LeftHandMiddle1
                      {
                        OFFSET -2.27185e-05 -8.30003 0.999989
                        CHANNELS 6 Xposition Yposition Zposition Zrotation Xrotation Yrotation
                        JOINT LeftHandMiddle2
                        {
                          OFFSET 0 -4.64996 0
                          CHANNELS 6 Xposition Yposition Zposition Zrotation Xrotation Yrotation
                          JOINT LeftHandMiddle3
                          {
                            OFFSET 0 -3.3 0
                            CHANNELS 6 Xposition Yposition Zposition Zrotation Xrotation Yrotation
                            End Site
                            {
                              OFFSET -4.26965e-05 -2.70004 0
                            }
                          }
                        }
                      }
                    }
                    JOINT LeftHandRing
                    {
                      OFFSET -0.499989 -2.14999 -0.799996
                      CHANNELS 6 Xposition Yposition Zposition Zrotation Xrotation Yrotation
                      JOINT LeftHandRing1
                      {
                        OFFSET 0 -7.74999 -0.199997
                        CHANNELS 6 Xposition Yposition Zposition Zrotation Xrotation Yrotation
                        JOINT LeftHandRing2
                        {
                          OFFSET 0 -3.80003 -1.36556e-05
                          CHANNELS 6 Xposition Yposition Zposition Zrotation Xrotation Yrotation
                          JOINT LeftHandRing3
                          {
                            OFFSET 0 -3.39998 1.50478e-05
                            CHANNELS 6 Xposition Yposition Zposition Zrotation Xrotation Yrotation
                            End Site
                            {
                              OFFSET 0 -2.60003 -1.24485e-05
                            }
                          }
                        }
                      }
                    }
                    JOINT LeftHandPinky
                    {
                      OFFSET -0.750007 -1.75001 -1.85001
                      CHANNELS 6 Xposition Yposition Zposition Zrotation Xrotation Yrotation
                      JOINT LeftHandPinky1
                      {
                        OFFSET 0 -7.14998 -1
                        CHANNELS 6 Xposition Yposition Zposition Zrotation Xrotation Yrotation
                        JOINT LeftHandPinky2
                        {
                          OFFSET 0 -2.99998 1.88355e-05
                          CHANNELS 6 Xposition Yposition Zposition Zrotation Xrotation Yrotation
                          JOINT LeftHandPinky3
                          {
                            OFFSET 2.04727e-05 -2.35001 0
                            CHANNELS 6 Xposition Yposition Zposition Zrotation Xrotation Yrotation
                            End Site
                            {
                              OFFSET 1.47757e-05 -2.09998 1.08149e-05
                            }
                          }
                        }
                      }
                    }
                  }
                }
              }
            }
          }
          JOINT RightShoulder
          {
            OFFSET -4.99999 17 1.49601e-05
            CHANNELS 6 Xposition Yposition Zposition Zrotation Xrotation Yrotation
            JOINT RightShoulder2
            {
              OFFSET -6.45 0 0
              CHANNELS 6 Xposition Yposition Zposition Zrotation Xrotation Yrotation
              JOINT RightArm
              {
                OFFSET -6.45 0 -1.92587e-05
                CHANNELS 6 Xposition Yposition Zposition Zrotation Xrotation Yrotation
                JOINT RightForeArm
                {
                  OFFSET 2.96092e-05 -32.4 -1.99999
                  CHANNELS 6 Xposition Yposition Zposition Zrotation Xrotation Yrotation
                  JOINT RightHand
                  {
                    OFFSET 0 -25.65 2
                    CHANNELS 6 Xposition Yposition Zposition Zrotation Xrotation Yrotation
                    JOINT RightHandThumb1
                    {
                      OFFSET 0.499991 -1.50003 2.64999
                      CHANNELS 6 Xposition Yposition Zposition Zrotation Xrotation Yrotation
                      JOINT RightHandThumb2
                      {
                        OFFSET 1.70597e-05 -3.8 3.70001
                        CHANNELS 6 Xposition Yposition Zposition Zrotation Xrotation Yrotation
                        JOINT RightHandThumb3
                        {
                          OFFSET -1.22054e-05 -2.99999 2.69998
                          CHANNELS 6 Xposition Yposition Zposition Zrotation Xrotation Yrotation
                          End Site
                          {
                            OFFSET 0 -2.30001 1.8
                          }
                        }
                      }
                    }
                    JOINT RightHandIndex
                    {
                      OFFSET -1.07322e-05 -1.90001 1.6
                      CHANNELS 6 Xposition Yposition Zposition Zrotation Xrotation Yrotation
                      JOINT RightHandIndex1
                      {
                        OFFSET 1.12524e-05 -8.29998 1.89992
                        CHANNELS 6 Xposition Yposition Zposition Zrotation Xrotation Yrotation
                        JOINT RightHandIndex2
                        {
                          OFFSET -1.24513e-05 -4.50003 0
                          CHANNELS 6 Xposition Yposition Zposition Zrotation Xrotation Yrotation
                          JOINT RightHandIndex3
                          {
                            OFFSET 7.01578e-05 -3.39998 1.03286e-05
                            CHANNELS 6 Xposition Yposition Zposition Zrotation Xrotation Yrotation
                            End Site
                            {
                              OFFSET 0 -2.60002 0
                            }
                          }
                        }
                      }
                    }
                    JOINT RightHandMiddle
                    {
                      OFFSET 0.249984 -2.2 0.39999
                      CHANNELS 6 Xposition Yposition Zposition Zrotation Xrotation Yrotation
                      JOINT RightHandMiddle1
                      {
                        OFFSET 0 -8.30001 1
                        CHANNELS 6 Xposition Yposition Zposition Zrotation Xrotation Yrotation
                        JOINT RightHandMiddle2
                        {
                          OFFSET -5.24186e-05 -4.64998 0
                          CHANNELS 6 Xposition Yposition Zposition Zrotation Xrotation Yrotation
                          JOINT RightHandMiddle3
                          {
                            OFFSET 1.7112e-05 -3.30001 -1.15961e-05
                            CHANNELS 6 Xposition Yposition Zposition Zrotation Xrotation Yrotation
                            End Site
                            {
                              OFFSET 0 -2.70003 1.09035e-05
                            }
                          }
                        }
                      }
                    }
                    JOINT RightHandRing
                    {
                      OFFSET 0.499988 -2.14998 -0.800004
                      CHANNELS 6 Xposition Yposition Zposition Zrotation Xrotation Yrotation
                      JOINT RightHandRing1
                      {
                        OFFSET 2.24399e-05 -7.75006 -0.199991
                        CHANNELS 6 Xposition Yposition Zposition Zrotation Xrotation Yrotation
                        JOINT RightHandRing2
                        {
                          OFFSET 0 -3.79999 0
                          CHANNELS 6 Xposition Yposition Zposition Zrotation Xrotation Yrotation
                          JOINT RightHandRing3
                          {
                            OFFSET 0 -3.39995 -1.87171e-05
                            CHANNELS 6 Xposition Yposition Zposition Zrotation Xrotation Yrotation
                            End Site
                            {
                              OFFSET 0 -2.59999 0
                            }
                          }
                        }
                      }
                    }
                    JOINT RightHandPinky
                    {
                      OFFSET 0.749975 -1.74998 -1.85002
                      CHANNELS 6 Xposition Yposition Zposition Zrotation Xrotation Yrotation
                      JOINT RightHandPinky1
                      {
                        OFFSET 1.89418e-05 -7.15003 -0.999994
                        CHANNELS 6 Xposition Yposition Zposition Zrotation Xrotation Yrotation
                        JOINT RightHandPinky2
                        {
                          OFFSET 0 -2.99997 0
                          CHANNELS 6 Xposition Yposition Zposition Zrotation Xrotation Yrotation
                          JOINT RightHandPinky3
                          {
                            OFFSET 0 -2.35001 1.0855e-05
                            CHANNELS 6 Xposition Yposition Zposition Zrotation Xrotation Yrotation
                            End Site
                            {
                              OFFSET 0 -2.1 -5.29952e-05
                            }
                          }
                        }
                      }
                    }
                  }
                }
              }
            }
          }
        }
      }
    }
  }
  JOINT LeftUpLeg
  {
    OFFSET 8.00001 0 0
    CHANNELS 6 Xposition Yposition Zposition Zrotation Xrotation Yrotation
    JOINT LeftLeg
    {
      OFFSET 0 -45.0001 -1.00001
      CHANNELS 6 Xposition Yposition Zposition Zrotation Xrotation Yrotation
      JOINT LeftFoot
      {
        OFFSET 1.58081e-05 -41 -1.99997
        CHANNELS 6 Xposition Yposition Zposition Zrotation Xrotation Yrotation
        JOINT LeftToeBase
        {
          OFFSET -1.73229e-05 -7.5 12.5
          CHANNELS 6 Xposition Yposition Zposition Zrotation Xrotation Yrotation
          JOINT LeftFootToe
          {
            OFFSET 0 0 4
            CHANNELS 6 Xposition Yposition Zposition Zrotation Xrotation Yrotation
            End Site
            {
              OFFSET 0 0 0
            }
          }
        }
      }
    }
  }
  JOINT RightUpLeg
  {
    OFFSET -8.00001 0 0
    CHANNELS 6 Xposition Yposition Zposition Zrotation Xrotation Yrotation
    JOINT RightLeg
    {
      OFFSET 0 -45 -1
      CHANNELS 6 Xposition Yposition Zposition Zrotation Xrotation Yrotation
      JOINT RightFoot
      {
        OFFSET 1.97252e-05 -41 -1.99999
        CHANNELS 6 Xposition Yposition Zposition Zrotation Xrotation Yrotation
        JOINT RightToeBase
        {
          OFFSET 1.84307e-05 -7.5 12.5
          CHANNELS 6 Xposition Yposition Zposition Zrotation Xrotation Yrotation
          JOINT RightFootToe
          {
            OFFSET 0 0 4
            CHANNELS 6 Xposition Yposition Zposition Zrotation Xrotation Yrotation
            End Site
            {
              OFFSET 0 0 0
            }
          }
        }
      }
    }
  }
}
MOTION
Frames:	3
Frame Time:	0.0111111
-319.389 91.7806 603.475 0.704571 4.79364 104.549 0 8 5.68434e-14 -9.59136 -1.5297 -8.28155 -1.13687e-13 8 0 1.5214 2.34555 -1.82629 0 8 -5.68434e-14 0.750104 1.17847 -0.905269 0 8 -5.68434e-14 0.753427 1.17496 -0.905018 0 17 0 -6.95449 14.9456 1.16806 0 10.8 -5.68434e-14 -2.96631 31.0919 3.05745 5 17 0 -6.49881 0.682546 -4.78079 6.45 0 0 1.00882 0.265238 3.02064 6.45 -2.84217e-14 0 10.0382 -21.6316 15.377 -1.13687e-13 -32.4 -2 -51.9977 -25.6912 9.57507 0 -25.65 2 0.814365 -5.51798 8.88248 -0.5 -1.5 2.65 -4.48282 -3.88306 1.72265 -5.68434e-14 -3.8 3.7 -0.229827 21.6444 -0.17949 0 -3 2.7 0.557828 55.4946 -0.834034 0 -1.9 1.6 -7.95139e-15 -9.54166e-15 -6.36111e-15 5.68434e-14 -8.3 1.9 -2.29959 8.72001 0.468204 5.68434e-14 -4.5 0 -7.31604 -0.0162012 0.0803709 -5.68434e-14 -3.4 0 -6.02513 -0.0228485 0.0625746 -0.25 -2.2 0.4 -7.95139e-15 -9.54166e-15 -6.36111e-15 5.68434e-14 -8.3 1 -16.4804 8.85094 2.2776 5.68434e-14 -4.65 0 -0.402047 0.00197612 0.000818823 0 -3.3 0 -0.389686 0.00187336 0.000849422 -0.5 -2.15 -0.8 -7.95139e-15 -9.54166e-15 -6.36111e-15 0 -7.75 -0.2 -45.2846 12.9274 8.26856 -2.84217e-14 -3.8 1.13687e-13 -2.18625 0.0132403 -0.00602013 -1.42109e-14 -3.4 0 -2.12003 0.00998182 -0.00722146 -0.75 -1.75 -1.85 -7.95139e-15 -9.54166e-15 -6.36111e-15 -5.68434e-14 -7.15 -1 -57.3579 16.4444 13.4445 -2.84217e-14 -3 0 -0.0297638 0.0202965 -0.0506705 -2.84217e-14 -2.35 5.68434e-14 -1.7905e-05 0.006685 -0.0685214 -5 17 0 -3.54332 -0.374528 -8.24909 -6.45 1.42109e-14 0 -1.62403 -0.565715 -0.529628 -6.45 4.26326e-14 0 -27.441 -10.45 -1.9332 0 -32.4 -2 138.142 -31.4768 133.971 -5.68434e-14 -25.65 2 -9.53425 -10.3163 26.4058 0.5 -1.5 2.65 17.1958 16.1894 0.998483 0 -3.8 3.7 2.42094 10.1896 -0.567643 0 -3 2.7 0.252019 39.7195 -0.217382 0 -1.9 1.6 -3.18055e-15 0 3.18055e-15 -5.68434e-14 -8.3 1.9 14.8798 -0.692275 0.145758 0 -4.5 2.84217e-14 25.0498 0.00619008 -0.00622265 3.90799e-14 -3.4 0 18.0958 0.00533641 -0.00451994 0.25 -2.2 0.4 -3.18055e-15 0 3.18055e-15 0 -8.3 1 30.5374 2.128 -1.32316 0 -4.65 0 0.295368 0.00414546 -0.017388 2.84217e-14 -3.3 8.52651e-14 3.90002e-05 0.0198574 -0.0111411 0.5 -2.15 -0.8 -3.18055e-15 0 3.18055e-15 -5.68434e-14 -7.75 -0.2 41.2052 -0.85261 -1.57756 -4.9738e-14 -3.8 0 0.0132639 0.000528785 -0.000148662 7.10543e-15 -3.4 -2.84217e-14 2.09315e-05 0.000475028 0.00473362 0.75 -1.75 -1.85 -3.18055e-15 0 3.18055e-15 -5.68434e-14 -7.15 -1 52.8169 -11.1524 -1.83822 0 -3 -2.84217e-14 0.00299724 0.0962782 0.0792592 0 -2.35 2.84217e-14 -0.000124155 0.0970551 0.0781971 8 2.84217e-14 5.68434e-14 -9.54981 6.65938 10.7993 5.68434e-14 -45 -1 -1.02691 3.06205 -4.05541 5.68434e-14 -41 -2 5.77757 -8.28028 -20.1144 1.13687e-13 -7.5 12.5 -2.7317e-10 3.44586e-06 -1.76948e-07 1.13687e-13 -2.77556e-17 4 -6.14257 -2.8322 55.5094 -8 2.84217e-14 5.68434e-14 -14.0508 -14.4214 -12.6613 0 -45 -1 0.0943394 11.5859 -1.83976 0 -41 -2 3.95987 1.20347 -6.93193 0 -7.5 12.5 -1.73661e-08 5.13792e-06 2.78295e-08 0 -3.55271e-15 4 1.77985 -5.23064 33.7851 
-319.383 91.7827 603.478 0.697049 4.79672 104.581 0 8 5.68434e-14 -9.58462 -1.53207 -8.27968 -1.13687e-13 8 -5.68434e-14 1.52098 2.34567 -1.84074 0 8 0 0.749621 1.17839 -0.912488 0 8 0 0.753255 1.17533 -0.910576 -1.13687e-13 17 0 -6.96276 15.0077 1.12653 0 10.8 0 -3.00316 31.2145 2.96198 5 17 0 -6.51304 0.7109 -4.81551 6.45 0 0 1.01426 0.270053 3.01934 6.45 -7.10543e-14 5.68434e-14 10.074 -21.6816 15.5405 0 -32.4 -2 -51.8479 -25.568 9.99358 -5.68434e-14 -25.65 2 -0.860493 -5.27588 8.74026 -0.5 -1.5 2.65 -5.10752 -3.25976 2.67067 -5.68434e-14 -3.8 3.7 -0.194132 23.0517 -0.185198 0 -3 2.7 0.551882 58.8165 -0.716514 5.68434e-14 -1.9 1.6 -3.18055e-15 -3.18055e-15 -0 0 -8.3 1.9 -2.12353 8.07805 0.416184 0 -4.5 0 -4.46548 -0.0235185 0.0556329 0 -3.4 0 -3.78041 -0.0248332 0.0399487 -0.25 -2.2 0.4 -3.18055e-15 -3.18055e-15 -0 -5.68434e-14 -8.3 1 -16.1578 8.55525 2.1964 5.68434e-14 -4.65 0 -0.126222 -0.00260839 0.00412333 0 -3.3 0 -0.12905 -0.00248441 0.00365656 -0.5 -2.15 -0.8 -3.18055e-15 -3.18055e-15 -0 0 -7.75 -0.2 -44.6718 12.9842 8.16749 4.26326e-14 -3.8 0 -1.91974 0.0127126 -0.00649312 1.42109e-14 -3.4 0 -1.86574 0.00971619 -0.00830806 -0.75 -1.75 -1.85 -3.18055e-15 -3.18055e-15 -0 0 -7.15 -1 -56.5831 16.6581 13.3159 2.84217e-14 -3 -5.68434e-14 -0.029764 0.0202965 -0.0502676 0 -2.35 0 -1.80382e-05 0.00662366 -0.0680043 -5 17 0 -3.56333 -0.35288 -8.26734 -6.45 0 0 -1.61603 -0.571162 -0.51298 -6.45 2.84217e-14 0 -27.3624 -10.3896 -2.08478 0 -32.4 -2 138.209 -31.5018 134.116 -1.13687e-13 -25.65 2 -9.91275 -10.5898 26.5979 0.5 -1.5 2.65 17.8023 16.2487 0.910245 5.68434e-14 -3.8 3.7 2.39848 9.35619 -0.566132 0 -3 2.7 0.251512 40.2003 -0.219576 0 -1.9 1.6 -9.54166e-15 3.18055e-15 1.59028e-15 0 -8.3 1.9 16.8334 -0.751374 0.195199 0 -4.5 -2.84217e-14 25.5384 0.00945118 -0.00562451 2.13163e-14 -3.4 2.84217e-14 18.3986 0.00508407 -0.00406323 0.25 -2.2 0.4 -9.54166e-15 3.18055e-15 1.59028e-15 5.68434e-14 -8.3 1 31.6728 2.32311 -1.38913 0 -4.65 0 0.295503 0.00430033 -0.0161515 2.84217e-14 -3.3 0 3.83911e-05 0.0201151 -0.0108469 0.5 -2.15 -0.8 -9.54166e-15 3.18055e-15 1.59028e-15 0 -7.75 -0.2 42.3098 -0.598306 -1.62542 -3.55271e-14 -3.8 0 0.0133045 0.000530016 -0.000166189 2.13163e-14 -3.4 5.68434e-14 2.1389e-05 0.000476054 0.00427273 0.75 -1.75 -1.85 -9.54166e-15 3.18055e-15 1.59028e-15 -5.68434e-14 -7.15 -1 54.0783 -9.85494 -1.87997 0 -3 5.68434e-14 0.00299686 0.0964193 0.0793664 0 -2.35 -2.84217e-14 -0.000124608 0.0972557 0.078303 8 0 5.68434e-14 -9.54738 6.6779 10.8014 -5.68434e-14 -45 -1 -1.02689 3.02178 -4.05925 5.68434e-14 -41 -2 5.7674 -8.26203 -20.1474 0 -7.5 12.5 -2.7317e-10 3.44586e-06 -1.76948e-07 0 8.32667e-17 4 -6.14834 -2.82487 55.5089 -8 -2.84217e-14 5.68434e-14 -14.0579 -14.4204 -12.6591 0 -45 -1 0.0943188 11.5914 -1.84122 0 -41 -2 3.96008 1.18806 -6.93931 0 -7.5 12.5 -1.73661e-08 5.13792e-06 2.78295e-08 -1.13687e-13 3.55271e-15 4 1.77724 -5.22604 33.7849 
-319.376 91.785 603.478 0.688776 4.80014 104.611 -5.68434e-14 8 -5.68434e-14 -9.57628 -1.53437 -8.27435 1.13687e-13 8 -1.13687e-13 1.52076 2.34547 -1.85459 0 8 0 0.74918 1.1783 -0.919407 1.13687e-13 8 5.68434e-14 0.75317 1.17568 -0.919874 0 17 0 -6.96976 15.0731 1.0817 0 10.8 0 -3.04066 31.3469 2.85889 5 17 0 -6.52715 0.735108 -4.85805 6.45 1.42109e-14 0 1.01827 0.273213 3.01643 6.45 -4.26326e-14 0 10.1229 -21.6787 15.6968 -5.68434e-14 -32.4 -2 -51.7258 -25.5174 10.3062 0 -25.65 2 -2.35487 -5.05202 8.55724 -0.5 -1.5 2.65 -5.98671 -2.40614 3.48069 0 -3.8 3.7 -0.172368 24.5568 -0.172499 5.68434e-14 -3 2.7 0.377321 61.2994 -0.459136 0 -1.9 1.6 1.76556e-31 3.18055e-15 -3.18055e-15 -5.68434e-14 -8.3 1.9 -1.96777 7.51336 0.363157 0 -4.5 0 -2.16562 -0.0109163 0.0118176 0 -3.4 1.13687e-13 -1.88816 -0.0107288 0.00627704 -0.25 -2.2 0.4 1.76556e-31 3.18055e-15 -3.18055e-15 0 -8.3 1 -15.9174 8.2093 2.10429 0 -4.65 0 -0.0417253 -0.00141321 0.00278996 0 -3.3 0 -0.0428688 -0.00133732 0.00252964 -0.5 -2.15 -0.8 1.76556e-31 3.18055e-15 -3.18055e-15 5.68434e-14 -7.75 -0.2 -44.1647 12.9509 8.0366 4.26326e-14 -3.8 0 -1.63329 0.0117725 -0.00687869 0 -3.4 0 -1.59012 0.00914001 -0.00926938 -0.75 -1.75 -1.85 1.76556e-31 3.18055e-15 -3.18055e-15 -5.68434e-14 -7.15 -1 -55.9472 16.801 13.1901 0 -3 0 -0.0297641 0.0202965 -0.0498633 -2.84217e-14 -2.35 0 -1.81706e-05 0.00656231 -0.0674838 -5 17 0 -3.57407 -0.32786 -8.28795 -6.45 0 0 -1.61022 -0.575773 -0.501663 -6.45 0 2.84217e-14 -27.2999 -10.3535 -2.23584 0 -32.4 -2 138.278 -31.5288 134.272 0 -25.65 2 -10.2611 -10.8412 26.781 0.5 -1.5 2.65 18.3942 16.2338 0.816095 0 -3.8 3.7 2.35919 8.68112 -0.564947 0 -3 2.7 0.249857 40.7137 -0.221979 0 -1.9 1.6 9.54166e-15 -3.18055e-15 4.77083e-15 0 -8.3 1.9 18.7859 -0.845017 0.251937 0 -4.5 2.84217e-14 26.1552 0.0139895 -0.00500877 3.55271e-14 -3.4 0 18.7797 0.00484184 -0.00361335 0.25 -2.2 0.4 9.54166e-15 -3.18055e-15 4.77083e-15 0 -8.3 1 32.6545 2.42986 -1.44729 -1.42109e-14 -4.65 8.52651e-14 0.295643 0.00445199 -0.0143403 1.42109e-14 -3.3 -2.84217e-14 3.77429e-05 0.0202227 -0.0104356 0.5 -2.15 -0.8 9.54166e-15 -3.18055e-15 4.77083e-15 -5.68434e-14 -7.75 -0.2 43.3786 -0.468956 -1.67587 -1.42109e-14 -3.8 2.84217e-14 0.0133451 0.0005265 -0.000180476 -7.10543e-15 -3.4 0 2.17932e-05 0.000472665 0.00379387 0.75 -1.75 -1.85 9.54166e-15 -3.18055e-15 4.77083e-15 0 -7.15 -1 55.3243 -8.41007 -1.93026 -2.84217e-14 -3 -2.84217e-14 0.0029965 0.0965557 0.0794693 2.84217e-14 -2.35 5.68434e-14 -0.000125049 0.0974521 0.0784046 8 0 0 -9.54827 6.70063 10.7911 0 -45 -1 -1.02694 2.97064 -4.06452 5.68434e-14 -41 -2 5.76068 -8.23728 -20.165 1.13687e-13 -7.5 12.5 -2.7317e-10 3.44586e-06 -1.76948e-07 -1.13687e-13 2.77556e-17 4 -6.15105 -2.81688 55.5084 -8 0 -5.68434e-14 -14.0662 -14.4189 -12.655 0 -45 -1 0.094169 11.5931 -1.84247 0 -41 -2 3.9614 1.17553 -6.94468 0 -7.5 12.5 -1.73661e-08 5.13792e-06 2.78295e-08 0 0 4 1.77661 -5.22424 33.7849 
